<svg width="800" height="450" viewBox="0 0 800 450" xmlns="http://www.w3.org/2000/svg">
  <defs>
    <linearGradient id="g-restaurants-morning-room" x1="0%" y1="0%" x2="100%" y2="100%">
      <stop offset="0%" stop-color="#141432"/>
      <stop offset="55%" stop-color="#0a0a1a"/>
      <stop offset="100%" stop-color="#6366f1" stop-opacity="0.22"/>
    </linearGradient>
    <radialGradient id="glow-restaurants-morning-room" cx="50%" cy="30%" r="70%">
      <stop offset="0%" stop-color="#c9a84c" stop-opacity="0.28"/>
      <stop offset="100%" stop-color="#c9a84c" stop-opacity="0"/>
    </radialGradient>
  </defs>
  <rect width="800" height="450" fill="url(#g-restaurants-morning-room)"/>
  <rect width="800" height="450" fill="url(#glow-restaurants-morning-room)"/>
  <g clip-path="url(#clip-restaurants-morning-room)"><line x1="0" y1="0" x2="0" y2="450" stroke="#c9a84c" stroke-width="0.5" opacity="0.08"/><line x1="40" y1="0" x2="40" y2="450" stroke="#c9a84c" stroke-width="0.5" opacity="0.08"/><line x1="80" y1="0" x2="80" y2="450" stroke="#c9a84c" stroke-width="0.5" opacity="0.08"/><line x1="120" y1="0" x2="120" y2="450" stroke="#c9a84c" stroke-width="0.5" opacity="0.08"/><line x1="160" y1="0" x2="160" y2="450" stroke="#c9a84c" stroke-width="0.5" opacity="0.08"/><line x1="200" y1="0" x2="200" y2="450" stroke="#c9a84c" stroke-width="0.5" opacity="0.08"/><line x1="240" y1="0" x2="240" y2="450" stroke="#c9a84c" stroke-width="0.5" opacity="0.08"/><line x1="280" y1="0" x2="280" y2="450" stroke="#c9a84c" stroke-width="0.5" opacity="0.08"/><line x1="320" y1="0" x2="320" y2="450" stroke="#c9a84c" stroke-width="0.5" opacity="0.08"/><line x1="360" y1="0" x2="360" y2="450" stroke="#c9a84c" stroke-width="0.5" opacity="0.08"/><line x1="400" y1="0" x2="400" y2="450" stroke="#c9a84c" stroke-width="0.5" opacity="0.08"/><line x1="440" y1="0" x2="440" y2="450" stroke="#c9a84c" stroke-width="0.5" opacity="0.08"/><line x1="480" y1="0" x2="480" y2="450" stroke="#c9a84c" stroke-width="0.5" opacity="0.08"/><line x1="520" y1="0" x2="520" y2="450" stroke="#c9a84c" stroke-width="0.5" opacity="0.08"/><line x1="560" y1="0" x2="560" y2="450" stroke="#c9a84c" stroke-width="0.5" opacity="0.08"/><line x1="600" y1="0" x2="600" y2="450" stroke="#c9a84c" stroke-width="0.5" opacity="0.08"/><line x1="640" y1="0" x2="640" y2="450" stroke="#c9a84c" stroke-width="0.5" opacity="0.08"/><line x1="680" y1="0" x2="680" y2="450" stroke="#c9a84c" stroke-width="0.5" opacity="0.08"/><line x1="720" y1="0" x2="720" y2="450" stroke="#c9a84c" stroke-width="0.5" opacity="0.08"/><line x1="760" y1="0" x2="760" y2="450" stroke="#c9a84c" stroke-width="0.5" opacity="0.08"/><line x1="800" y1="0" x2="800" y2="450" stroke="#c9a84c" stroke-width="0.5" opacity="0.08"/><line x1="0" y1="0" x2="800" y2="0" stroke="#c9a84c" stroke-width="0.5" opacity="0.08"/><line x1="0" y1="40" x2="800" y2="40" stroke="#c9a84c" stroke-width="0.5" opacity="0.08"/><line x1="0" y1="80" x2="800" y2="80" stroke="#c9a84c" stroke-width="0.5" opacity="0.08"/><line x1="0" y1="120" x2="800" y2="120" stroke="#c9a84c" stroke-width="0.5" opacity="0.08"/><line x1="0" y1="160" x2="800" y2="160" stroke="#c9a84c" stroke-width="0.5" opacity="0.08"/><line x1="0" y1="200" x2="800" y2="200" stroke="#c9a84c" stroke-width="0.5" opacity="0.08"/><line x1="0" y1="240" x2="800" y2="240" stroke="#c9a84c" stroke-width="0.5" opacity="0.08"/><line x1="0" y1="280" x2="800" y2="280" stroke="#c9a84c" stroke-width="0.5" opacity="0.08"/><line x1="0" y1="320" x2="800" y2="320" stroke="#c9a84c" stroke-width="0.5" opacity="0.08"/><line x1="0" y1="360" x2="800" y2="360" stroke="#c9a84c" stroke-width="0.5" opacity="0.08"/><line x1="0" y1="400" x2="800" y2="400" stroke="#c9a84c" stroke-width="0.5" opacity="0.08"/><line x1="0" y1="440" x2="800" y2="440" stroke="#c9a84c" stroke-width="0.5" opacity="0.08"/></g>
  <clipPath id="clip-restaurants-morning-room"><rect width="800" height="450"/></clipPath>
  <text x="40" y="405" font-family="Poppins, sans-serif" font-size="15" letter-spacing="2" fill="#c9a84c" opacity="0.55">THE MORNING ROOM</text>
</svg>