<svg width="800" height="450" viewBox="0 0 800 450" xmlns="http://www.w3.org/2000/svg">
  <defs>
    <linearGradient id="g-facilities-kids-lounge" x1="0%" y1="0%" x2="100%" y2="100%">
      <stop offset="0%" stop-color="#141432"/>
      <stop offset="55%" stop-color="#0a0a1a"/>
      <stop offset="100%" stop-color="#c9a84c" stop-opacity="0.22"/>
    </linearGradient>
    <radialGradient id="glow-facilities-kids-lounge" cx="50%" cy="30%" r="70%">
      <stop offset="0%" stop-color="#4f46e5" stop-opacity="0.28"/>
      <stop offset="100%" stop-color="#4f46e5" stop-opacity="0"/>
    </radialGradient>
  </defs>
  <rect width="800" height="450" fill="url(#g-facilities-kids-lounge)"/>
  <rect width="800" height="450" fill="url(#glow-facilities-kids-lounge)"/>
  <g clip-path="url(#clip-facilities-kids-lounge)"><circle cx="30" cy="30" r="1.6" fill="#4f46e5" opacity="0.18"/><circle cx="30" cy="76" r="1.6" fill="#4f46e5" opacity="0.18"/><circle cx="30" cy="122" r="1.6" fill="#4f46e5" opacity="0.18"/><circle cx="30" cy="168" r="1.6" fill="#4f46e5" opacity="0.18"/><circle cx="30" cy="214" r="1.6" fill="#4f46e5" opacity="0.18"/><circle cx="30" cy="260" r="1.6" fill="#4f46e5" opacity="0.18"/><circle cx="30" cy="306" r="1.6" fill="#4f46e5" opacity="0.18"/><circle cx="30" cy="352" r="1.6" fill="#4f46e5" opacity="0.18"/><circle cx="30" cy="398" r="1.6" fill="#4f46e5" opacity="0.18"/><circle cx="30" cy="444" r="1.6" fill="#4f46e5" opacity="0.18"/><circle cx="76" cy="30" r="1.6" fill="#4f46e5" opacity="0.18"/><circle cx="76" cy="76" r="1.6" fill="#4f46e5" opacity="0.18"/><circle cx="76" cy="122" r="1.6" fill="#4f46e5" opacity="0.18"/><circle cx="76" cy="168" r="1.6" fill="#4f46e5" opacity="0.18"/><circle cx="76" cy="214" r="1.6" fill="#4f46e5" opacity="0.18"/><circle cx="76" cy="260" r="1.6" fill="#4f46e5" opacity="0.18"/><circle cx="76" cy="306" r="1.6" fill="#4f46e5" opacity="0.18"/><circle cx="76" cy="352" r="1.6" fill="#4f46e5" opacity="0.18"/><circle cx="76" cy="398" r="1.6" fill="#4f46e5" opacity="0.18"/><circle cx="76" cy="444" r="1.6" fill="#4f46e5" opacity="0.18"/><circle cx="122" cy="30" r="1.6" fill="#4f46e5" opacity="0.18"/><circle cx="122" cy="76" r="1.6" fill="#4f46e5" opacity="0.18"/><circle cx="122" cy="122" r="1.6" fill="#4f46e5" opacity="0.18"/><circle cx="122" cy="168" r="1.6" fill="#4f46e5" opacity="0.18"/><circle cx="122" cy="214" r="1.6" fill="#4f46e5" opacity="0.18"/><circle cx="122" cy="260" r="1.6" fill="#4f46e5" opacity="0.18"/><circle cx="122" cy="306" r="1.6" fill="#4f46e5" opacity="0.18"/><circle cx="122" cy="352" r="1.6" fill="#4f46e5" opacity="0.18"/><circle cx="122" cy="398" r="1.6" fill="#4f46e5" opacity="0.18"/><circle cx="122" cy="444" r="1.6" fill="#4f46e5" opacity="0.18"/><circle cx="168" cy="30" r="1.6" fill="#4f46e5" opacity="0.18"/><circle cx="168" cy="76" r="1.6" fill="#4f46e5" opacity="0.18"/><circle cx="168" cy="122" r="1.6" fill="#4f46e5" opacity="0.18"/><circle cx="168" cy="168" r="1.6" fill="#4f46e5" opacity="0.18"/><circle cx="168" cy="214" r="1.6" fill="#4f46e5" opacity="0.18"/><circle cx="168" cy="260" r="1.6" fill="#4f46e5" opacity="0.18"/><circle cx="168" cy="306" r="1.6" fill="#4f46e5" opacity="0.18"/><circle cx="168" cy="352" r="1.6" fill="#4f46e5" opacity="0.18"/><circle cx="168" cy="398" r="1.6" fill="#4f46e5" opacity="0.18"/><circle cx="168" cy="444" r="1.6" fill="#4f46e5" opacity="0.18"/><circle cx="214" cy="30" r="1.6" fill="#4f46e5" opacity="0.18"/><circle cx="214" cy="76" r="1.6" fill="#4f46e5" opacity="0.18"/><circle cx="214" cy="122" r="1.6" fill="#4f46e5" opacity="0.18"/><circle cx="214" cy="168" r="1.6" fill="#4f46e5" opacity="0.18"/><circle cx="214" cy="214" r="1.6" fill="#4f46e5" opacity="0.18"/><circle cx="214" cy="260" r="1.6" fill="#4f46e5" opacity="0.18"/><circle cx="214" cy="306" r="1.6" fill="#4f46e5" opacity="0.18"/><circle cx="214" cy="352" r="1.6" fill="#4f46e5" opacity="0.18"/><circle cx="214" cy="398" r="1.6" fill="#4f46e5" opacity="0.18"/><circle cx="214" cy="444" r="1.6" fill="#4f46e5" opacity="0.18"/><circle cx="260" cy="30" r="1.6" fill="#4f46e5" opacity="0.18"/><circle cx="260" cy="76" r="1.6" fill="#4f46e5" opacity="0.18"/><circle cx="260" cy="122" r="1.6" fill="#4f46e5" opacity="0.18"/><circle cx="260" cy="168" r="1.6" fill="#4f46e5" opacity="0.18"/><circle cx="260" cy="214" r="1.6" fill="#4f46e5" opacity="0.18"/><circle cx="260" cy="260" r="1.6" fill="#4f46e5" opacity="0.18"/><circle cx="260" cy="306" r="1.6" fill="#4f46e5" opacity="0.18"/><circle cx="260" cy="352" r="1.6" fill="#4f46e5" opacity="0.18"/><circle cx="260" cy="398" r="1.6" fill="#4f46e5" opacity="0.18"/><circle cx="260" cy="444" r="1.6" fill="#4f46e5" opacity="0.18"/><circle cx="306" cy="30" r="1.6" fill="#4f46e5" opacity="0.18"/><circle cx="306" cy="76" r="1.6" fill="#4f46e5" opacity="0.18"/><circle cx="306" cy="122" r="1.6" fill="#4f46e5" opacity="0.18"/><circle cx="306" cy="168" r="1.6" fill="#4f46e5" opacity="0.18"/><circle cx="306" cy="214" r="1.6" fill="#4f46e5" opacity="0.18"/><circle cx="306" cy="260" r="1.6" fill="#4f46e5" opacity="0.18"/><circle cx="306" cy="306" r="1.6" fill="#4f46e5" opacity="0.18"/><circle cx="306" cy="352" r="1.6" fill="#4f46e5" opacity="0.18"/><circle cx="306" cy="398" r="1.6" fill="#4f46e5" opacity="0.18"/><circle cx="306" cy="444" r="1.6" fill="#4f46e5" opacity="0.18"/><circle cx="352" cy="30" r="1.6" fill="#4f46e5" opacity="0.18"/><circle cx="352" cy="76" r="1.6" fill="#4f46e5" opacity="0.18"/><circle cx="352" cy="122" r="1.6" fill="#4f46e5" opacity="0.18"/><circle cx="352" cy="168" r="1.6" fill="#4f46e5" opacity="0.18"/><circle cx="352" cy="214" r="1.6" fill="#4f46e5" opacity="0.18"/><circle cx="352" cy="260" r="1.6" fill="#4f46e5" opacity="0.18"/><circle cx="352" cy="306" r="1.6" fill="#4f46e5" opacity="0.18"/><circle cx="352" cy="352" r="1.6" fill="#4f46e5" opacity="0.18"/><circle cx="352" cy="398" r="1.6" fill="#4f46e5" opacity="0.18"/><circle cx="352" cy="444" r="1.6" fill="#4f46e5" opacity="0.18"/><circle cx="398" cy="30" r="1.6" fill="#4f46e5" opacity="0.18"/><circle cx="398" cy="76" r="1.6" fill="#4f46e5" opacity="0.18"/><circle cx="398" cy="122" r="1.6" fill="#4f46e5" opacity="0.18"/><circle cx="398" cy="168" r="1.6" fill="#4f46e5" opacity="0.18"/><circle cx="398" cy="214" r="1.6" fill="#4f46e5" opacity="0.18"/><circle cx="398" cy="260" r="1.6" fill="#4f46e5" opacity="0.18"/><circle cx="398" cy="306" r="1.6" fill="#4f46e5" opacity="0.18"/><circle cx="398" cy="352" r="1.6" fill="#4f46e5" opacity="0.18"/><circle cx="398" cy="398" r="1.6" fill="#4f46e5" opacity="0.18"/><circle cx="398" cy="444" r="1.6" fill="#4f46e5" opacity="0.18"/><circle cx="444" cy="30" r="1.6" fill="#4f46e5" opacity="0.18"/><circle cx="444" cy="76" r="1.6" fill="#4f46e5" opacity="0.18"/><circle cx="444" cy="122" r="1.6" fill="#4f46e5" opacity="0.18"/><circle cx="444" cy="168" r="1.6" fill="#4f46e5" opacity="0.18"/><circle cx="444" cy="214" r="1.6" fill="#4f46e5" opacity="0.18"/><circle cx="444" cy="260" r="1.6" fill="#4f46e5" opacity="0.18"/><circle cx="444" cy="306" r="1.6" fill="#4f46e5" opacity="0.18"/><circle cx="444" cy="352" r="1.6" fill="#4f46e5" opacity="0.18"/><circle cx="444" cy="398" r="1.6" fill="#4f46e5" opacity="0.18"/><circle cx="444" cy="444" r="1.6" fill="#4f46e5" opacity="0.18"/><circle cx="490" cy="30" r="1.6" fill="#4f46e5" opacity="0.18"/><circle cx="490" cy="76" r="1.6" fill="#4f46e5" opacity="0.18"/><circle cx="490" cy="122" r="1.6" fill="#4f46e5" opacity="0.18"/><circle cx="490" cy="168" r="1.6" fill="#4f46e5" opacity="0.18"/><circle cx="490" cy="214" r="1.6" fill="#4f46e5" opacity="0.18"/><circle cx="490" cy="260" r="1.6" fill="#4f46e5" opacity="0.18"/><circle cx="490" cy="306" r="1.6" fill="#4f46e5" opacity="0.18"/><circle cx="490" cy="352" r="1.6" fill="#4f46e5" opacity="0.18"/><circle cx="490" cy="398" r="1.6" fill="#4f46e5" opacity="0.18"/><circle cx="490" cy="444" r="1.6" fill="#4f46e5" opacity="0.18"/><circle cx="536" cy="30" r="1.6" fill="#4f46e5" opacity="0.18"/><circle cx="536" cy="76" r="1.6" fill="#4f46e5" opacity="0.18"/><circle cx="536" cy="122" r="1.6" fill="#4f46e5" opacity="0.18"/><circle cx="536" cy="168" r="1.6" fill="#4f46e5" opacity="0.18"/><circle cx="536" cy="214" r="1.6" fill="#4f46e5" opacity="0.18"/><circle cx="536" cy="260" r="1.6" fill="#4f46e5" opacity="0.18"/><circle cx="536" cy="306" r="1.6" fill="#4f46e5" opacity="0.18"/><circle cx="536" cy="352" r="1.6" fill="#4f46e5" opacity="0.18"/><circle cx="536" cy="398" r="1.6" fill="#4f46e5" opacity="0.18"/><circle cx="536" cy="444" r="1.6" fill="#4f46e5" opacity="0.18"/><circle cx="582" cy="30" r="1.6" fill="#4f46e5" opacity="0.18"/><circle cx="582" cy="76" r="1.6" fill="#4f46e5" opacity="0.18"/><circle cx="582" cy="122" r="1.6" fill="#4f46e5" opacity="0.18"/><circle cx="582" cy="168" r="1.6" fill="#4f46e5" opacity="0.18"/><circle cx="582" cy="214" r="1.6" fill="#4f46e5" opacity="0.18"/><circle cx="582" cy="260" r="1.6" fill="#4f46e5" opacity="0.18"/><circle cx="582" cy="306" r="1.6" fill="#4f46e5" opacity="0.18"/><circle cx="582" cy="352" r="1.6" fill="#4f46e5" opacity="0.18"/><circle cx="582" cy="398" r="1.6" fill="#4f46e5" opacity="0.18"/><circle cx="582" cy="444" r="1.6" fill="#4f46e5" opacity="0.18"/><circle cx="628" cy="30" r="1.6" fill="#4f46e5" opacity="0.18"/><circle cx="628" cy="76" r="1.6" fill="#4f46e5" opacity="0.18"/><circle cx="628" cy="122" r="1.6" fill="#4f46e5" opacity="0.18"/><circle cx="628" cy="168" r="1.6" fill="#4f46e5" opacity="0.18"/><circle cx="628" cy="214" r="1.6" fill="#4f46e5" opacity="0.18"/><circle cx="628" cy="260" r="1.6" fill="#4f46e5" opacity="0.18"/><circle cx="628" cy="306" r="1.6" fill="#4f46e5" opacity="0.18"/><circle cx="628" cy="352" r="1.6" fill="#4f46e5" opacity="0.18"/><circle cx="628" cy="398" r="1.6" fill="#4f46e5" opacity="0.18"/><circle cx="628" cy="444" r="1.6" fill="#4f46e5" opacity="0.18"/><circle cx="674" cy="30" r="1.6" fill="#4f46e5" opacity="0.18"/><circle cx="674" cy="76" r="1.6" fill="#4f46e5" opacity="0.18"/><circle cx="674" cy="122" r="1.6" fill="#4f46e5" opacity="0.18"/><circle cx="674" cy="168" r="1.6" fill="#4f46e5" opacity="0.18"/><circle cx="674" cy="214" r="1.6" fill="#4f46e5" opacity="0.18"/><circle cx="674" cy="260" r="1.6" fill="#4f46e5" opacity="0.18"/><circle cx="674" cy="306" r="1.6" fill="#4f46e5" opacity="0.18"/><circle cx="674" cy="352" r="1.6" fill="#4f46e5" opacity="0.18"/><circle cx="674" cy="398" r="1.6" fill="#4f46e5" opacity="0.18"/><circle cx="674" cy="444" r="1.6" fill="#4f46e5" opacity="0.18"/><circle cx="720" cy="30" r="1.6" fill="#4f46e5" opacity="0.18"/><circle cx="720" cy="76" r="1.6" fill="#4f46e5" opacity="0.18"/><circle cx="720" cy="122" r="1.6" fill="#4f46e5" opacity="0.18"/><circle cx="720" cy="168" r="1.6" fill="#4f46e5" opacity="0.18"/><circle cx="720" cy="214" r="1.6" fill="#4f46e5" opacity="0.18"/><circle cx="720" cy="260" r="1.6" fill="#4f46e5" opacity="0.18"/><circle cx="720" cy="306" r="1.6" fill="#4f46e5" opacity="0.18"/><circle cx="720" cy="352" r="1.6" fill="#4f46e5" opacity="0.18"/><circle cx="720" cy="398" r="1.6" fill="#4f46e5" opacity="0.18"/><circle cx="720" cy="444" r="1.6" fill="#4f46e5" opacity="0.18"/><circle cx="766" cy="30" r="1.6" fill="#4f46e5" opacity="0.18"/><circle cx="766" cy="76" r="1.6" fill="#4f46e5" opacity="0.18"/><circle cx="766" cy="122" r="1.6" fill="#4f46e5" opacity="0.18"/><circle cx="766" cy="168" r="1.6" fill="#4f46e5" opacity="0.18"/><circle cx="766" cy="214" r="1.6" fill="#4f46e5" opacity="0.18"/><circle cx="766" cy="260" r="1.6" fill="#4f46e5" opacity="0.18"/><circle cx="766" cy="306" r="1.6" fill="#4f46e5" opacity="0.18"/><circle cx="766" cy="352" r="1.6" fill="#4f46e5" opacity="0.18"/><circle cx="766" cy="398" r="1.6" fill="#4f46e5" opacity="0.18"/><circle cx="766" cy="444" r="1.6" fill="#4f46e5" opacity="0.18"/></g>
  <clipPath id="clip-facilities-kids-lounge"><rect width="800" height="450"/></clipPath>
  <text x="40" y="405" font-family="Poppins, sans-serif" font-size="15" letter-spacing="2" fill="#4f46e5" opacity="0.55">JUNIOR PLAY LOUNGE</text>
</svg>